<svg xmlns="http://www.w3.org/2000/svg" width="100%" height="100%" viewBox="0 0 94 112">
	<title>Svelte Logo</title>
	<path
		d="M87.253,14.819C76.853,-0.066 56.313,-4.478 41.462,4.984L15.379,21.608C8.258,26.088 3.346,33.37 1.86,41.651C0.617,48.551 1.71,55.673 4.968,61.882C2.736,65.269 1.213,69.074 0.492,73.065C-1.009,81.506 0.956,90.205 5.939,97.181C16.341,112.067 36.881,116.478 51.731,107.016L77.813,90.392C84.935,85.913 89.847,78.63 91.332,70.349C92.576,63.449 91.483,56.327 88.227,50.117C90.459,46.73 91.981,42.926 92.701,38.935C94.202,30.494 92.237,21.795 87.254,14.819"
		style="fill:#ff3e00;" />
	<path
		d="M38.914,98.581C30.526,100.762 21.616,97.46 16.677,90.339C13.679,86.144 12.498,80.912 13.4,75.836C13.551,75.011 13.76,74.197 14.023,73.401L14.514,71.903L15.851,72.884C18.937,75.152 22.387,76.876 26.054,77.982L27.023,78.276L26.934,79.244C26.815,80.62 27.188,81.994 27.986,83.122C29.473,85.267 32.155,86.263 34.681,85.607C35.248,85.455 35.788,85.218 36.283,84.903L62.367,68.281C63.656,67.469 64.546,66.15 64.817,64.65C65.087,63.12 64.731,61.544 63.83,60.279C62.342,58.133 59.659,57.137 57.132,57.792C56.566,57.944 56.026,58.181 55.532,58.496L45.579,64.841C43.942,65.882 42.156,66.666 40.282,67.167C31.894,69.348 22.985,66.045 18.045,58.924C15.048,54.729 13.866,49.498 14.769,44.422C15.662,39.442 18.616,35.063 22.899,32.37L48.98,15.747C50.617,14.705 52.405,13.919 54.28,13.418C62.668,11.238 71.577,14.54 76.517,21.661C79.514,25.856 80.696,31.088 79.793,36.164C79.641,36.989 79.433,37.803 79.17,38.599L78.679,40.097L77.343,39.117C74.257,36.848 70.806,35.123 67.139,34.017L66.17,33.723L66.259,32.755C66.377,31.379 66.004,30.005 65.207,28.877C63.721,26.732 61.038,25.737 58.512,26.392C57.945,26.544 57.405,26.781 56.91,27.096L30.827,43.719C29.537,44.531 28.647,45.849 28.378,47.349C28.106,48.879 28.461,50.456 29.363,51.721C30.851,53.866 33.534,54.862 36.061,54.207C36.628,54.055 37.168,53.818 37.663,53.503L47.615,47.16C49.251,46.118 51.037,45.333 52.911,44.833C61.299,42.652 70.208,45.954 75.148,53.075C78.145,57.27 79.327,62.502 78.424,67.578C77.531,72.558 74.577,76.937 70.294,79.631L44.213,96.253C42.576,97.295 40.788,98.08 38.913,98.581"
		style="fill:#fff;" />
</svg>
